<svg width="23" height="23" viewBox="0 0 23 23" fill="none" xmlns="http://www.w3.org/2000/svg">
<g clip-path="url(#clip0_119_162)">
<path d="M0.960938 21.5891V19.337C0.960938 18.778 1.10469 18.2708 1.39219 17.8156C1.67969 17.3604 2.07899 17.021 2.5901 16.7974C3.75608 16.2863 4.80625 15.9189 5.74062 15.6953C6.675 15.4717 7.63733 15.3599 8.6276 15.3599C9.61788 15.3599 10.5762 15.4717 11.5026 15.6953C12.429 15.9189 13.4752 16.2863 14.6411 16.7974C15.1523 17.021 15.5556 17.3604 15.851 17.8156C16.1465 18.2708 16.2943 18.778 16.2943 19.337V21.5891H0.960938ZM17.7318 21.5891V19.337C17.7318 18.3307 17.4762 17.5042 16.9651 16.8573C16.454 16.2104 15.7832 15.6873 14.9526 15.288C16.0547 15.4158 17.0929 15.6035 18.0672 15.851C19.0415 16.0986 19.8321 16.3821 20.4391 16.7016C20.9661 17.005 21.3814 17.3804 21.6849 17.8276C21.9884 18.2748 22.1401 18.778 22.1401 19.337V21.5891H17.7318ZM8.6276 13.8984C7.57344 13.8984 6.71094 13.563 6.0401 12.8922C5.36927 12.2214 5.03385 11.3589 5.03385 10.3047C5.03385 9.25052 5.36927 8.38802 6.0401 7.71719C6.71094 7.04635 7.57344 6.71094 8.6276 6.71094C9.68177 6.71094 10.5443 7.04635 11.2151 7.71719C11.8859 8.38802 12.2214 9.25052 12.2214 10.3047C12.2214 11.3589 11.8859 12.2214 11.2151 12.8922C10.5443 13.563 9.68177 13.8984 8.6276 13.8984ZM17.2526 10.3047C17.2526 11.3589 16.9172 12.2214 16.2464 12.8922C15.5755 13.563 14.713 13.8984 13.6589 13.8984C13.4832 13.8984 13.2875 13.8865 13.0719 13.8625C12.8562 13.8385 12.6606 13.7946 12.4849 13.7307C12.8682 13.3314 13.1597 12.8403 13.3594 12.2573C13.559 11.6743 13.6589 11.0234 13.6589 10.3047C13.6589 9.58594 13.559 8.95104 13.3594 8.4C13.1597 7.84896 12.8682 7.34184 12.4849 6.87865C12.6606 6.83073 12.8562 6.7908 13.0719 6.75885C13.2875 6.72691 13.4832 6.71094 13.6589 6.71094C14.713 6.71094 15.5755 7.04635 16.2464 7.71719C16.9172 8.38802 17.2526 9.25052 17.2526 10.3047ZM2.39844 20.1516H14.8568V19.337C14.8568 19.0814 14.7809 18.8339 14.6292 18.5943C14.4774 18.3547 14.2898 18.187 14.0661 18.0911C12.9161 17.58 11.9498 17.2366 11.1672 17.0609C10.3845 16.8852 9.53802 16.7974 8.6276 16.7974C7.71719 16.7974 6.86667 16.8852 6.07604 17.0609C5.28542 17.2366 4.3151 17.58 3.1651 18.0911C2.94149 18.187 2.75781 18.3547 2.61406 18.5943C2.47031 18.8339 2.39844 19.0814 2.39844 19.337V20.1516ZM8.6276 12.4609C9.25052 12.4609 9.76562 12.2573 10.1729 11.85C10.5802 11.4427 10.7839 10.9276 10.7839 10.3047C10.7839 9.68177 10.5802 9.16667 10.1729 8.75937C9.76562 8.35208 9.25052 8.14844 8.6276 8.14844C8.00469 8.14844 7.48958 8.35208 7.08229 8.75937C6.675 9.16667 6.47135 9.68177 6.47135 10.3047C6.47135 10.9276 6.675 11.4427 7.08229 11.85C7.48958 12.2573 8.00469 12.4609 8.6276 12.4609Z" fill="#F8F8F8"/>
</g>
<defs>
<clipPath id="clip0_119_162">
<rect width="23" height="23" fill="white"/>
</clipPath>
</defs>
</svg>
