<svg width="23" height="23" viewBox="0 0 23 23" fill="none" xmlns="http://www.w3.org/2000/svg">
<g clip-path="url(#clip0_119_175)">
<path d="M9.29714 21.0846L8.81797 18.0659C8.5145 17.9541 8.19505 17.8023 7.85964 17.6107C7.52422 17.419 7.22873 17.2194 6.97318 17.0117L4.14609 18.3055L1.91797 14.3763L4.50547 12.4836C4.47352 12.3398 4.45356 12.1761 4.44557 11.9924C4.43759 11.8088 4.43359 11.6451 4.43359 11.5013C4.43359 11.3576 4.43759 11.1938 4.44557 11.0102C4.45356 10.8265 4.47352 10.6628 4.50547 10.519L1.91797 8.6263L4.14609 4.69714L6.97318 5.99089C7.22873 5.78325 7.52422 5.58359 7.85964 5.39193C8.19505 5.20026 8.5145 5.05651 8.81797 4.96068L9.29714 1.91797H13.7055L14.1846 4.93672C14.4881 5.04852 14.8115 5.19627 15.1549 5.37995C15.4984 5.56363 15.7898 5.76727 16.0294 5.99089L18.8565 4.69714L21.0846 8.6263L18.4971 10.4711C18.5291 10.6308 18.549 10.8025 18.557 10.9862C18.565 11.1699 18.569 11.3416 18.569 11.5013C18.569 11.661 18.565 11.8287 18.557 12.0044C18.549 12.1801 18.5291 12.3478 18.4971 12.5076L21.0846 14.3763L18.8565 18.3055L16.0294 17.0117C15.7739 17.2194 15.4824 17.423 15.1549 17.6227C14.8275 17.8223 14.5041 17.9701 14.1846 18.0659L13.7055 21.0846H9.29714ZM11.5013 14.6159C12.3638 14.6159 13.0985 14.3124 13.7055 13.7055C14.3124 13.0985 14.6159 12.3638 14.6159 11.5013C14.6159 10.6388 14.3124 9.90408 13.7055 9.29714C13.0985 8.69019 12.3638 8.38672 11.5013 8.38672C10.6388 8.38672 9.90408 8.69019 9.29714 9.29714C8.69019 9.90408 8.38672 10.6388 8.38672 11.5013C8.38672 12.3638 8.69019 13.0985 9.29714 13.7055C9.90408 14.3124 10.6388 14.6159 11.5013 14.6159ZM11.5013 13.1784C11.0381 13.1784 10.6428 13.0147 10.3154 12.6872C9.98793 12.3598 9.82422 11.9645 9.82422 11.5013C9.82422 11.0381 9.98793 10.6428 10.3154 10.3154C10.6428 9.98793 11.0381 9.82422 11.5013 9.82422C11.9645 9.82422 12.3598 9.98793 12.6872 10.3154C13.0147 10.6428 13.1784 11.0381 13.1784 11.5013C13.1784 11.9645 13.0147 12.3598 12.6872 12.6872C12.3598 13.0147 11.9645 13.1784 11.5013 13.1784ZM10.4471 19.6471H12.5555L12.8909 16.9638C13.418 16.836 13.9171 16.6364 14.3883 16.3648C14.8595 16.0933 15.2867 15.7659 15.6701 15.3826L18.2096 16.4846L19.168 14.7596L16.9159 13.1065C16.9798 12.835 17.0317 12.5674 17.0716 12.3039C17.1115 12.0404 17.1315 11.7728 17.1315 11.5013C17.1315 11.2298 17.1155 10.9622 17.0836 10.6987C17.0516 10.4352 16.9957 10.1676 16.9159 9.89609L19.168 8.24297L18.2096 6.51797L15.6701 7.62005C15.3027 7.20477 14.8874 6.85738 14.4242 6.57786C13.961 6.29835 13.4499 6.11866 12.8909 6.0388L12.5555 3.35547H10.4471L10.1117 6.0388C9.56866 6.15061 9.06154 6.34227 8.59036 6.6138C8.11918 6.88533 7.69991 7.22075 7.33255 7.62005L4.79297 6.51797L3.83464 8.24297L6.08672 9.89609C6.02283 10.1676 5.97092 10.4352 5.93099 10.6987C5.89106 10.9622 5.87109 11.2298 5.87109 11.5013C5.87109 11.7728 5.89106 12.0404 5.93099 12.3039C5.97092 12.5674 6.02283 12.835 6.08672 13.1065L3.83464 14.7596L4.79297 16.4846L7.33255 15.3826C7.71589 15.7659 8.14314 16.0933 8.61432 16.3648C9.0855 16.6364 9.58464 16.836 10.1117 16.9638L10.4471 19.6471Z" fill="#F8F8F8"/>
</g>
<defs>
<clipPath id="clip0_119_175">
<rect width="23" height="23" fill="white"/>
</clipPath>
</defs>
</svg>
