<svg width="23" height="23" viewBox="0 0 23 23" fill="none" xmlns="http://www.w3.org/2000/svg">
<g clip-path="url(#clip0_119_315)">
<path d="M5.32005 16.8919C6.3263 16.1891 7.32457 15.6501 8.31484 15.2747C9.30512 14.8994 10.3673 14.7117 11.5013 14.7117C12.6353 14.7117 13.7015 14.8994 14.6997 15.2747C15.698 15.6501 16.7003 16.1891 17.7065 16.8919C18.4093 16.0294 18.9084 15.1589 19.2039 14.2805C19.4994 13.402 19.6471 12.4756 19.6471 11.5013C19.6471 9.18533 18.8685 7.2487 17.3112 5.69141C15.7539 4.13411 13.8173 3.35547 11.5013 3.35547C9.18533 3.35547 7.2487 4.13411 5.69141 5.69141C4.13411 7.2487 3.35547 9.18533 3.35547 11.5013C3.35547 12.4756 3.5072 13.402 3.81068 14.2805C4.11415 15.1589 4.61727 16.0294 5.32005 16.8919ZM11.4968 12.2201C10.5734 12.2201 9.79627 11.9031 9.16536 11.2692C8.53446 10.6354 8.21901 9.85672 8.21901 8.9333C8.21901 8.00989 8.53595 7.23273 9.16982 6.60182C9.80369 5.97092 10.5823 5.65547 11.5058 5.65547C12.4292 5.65547 13.2063 5.9724 13.8372 6.60628C14.4681 7.24015 14.7836 8.0188 14.7836 8.94222C14.7836 9.86563 14.4667 10.6428 13.8328 11.2737C13.1989 11.9046 12.4203 12.2201 11.4968 12.2201ZM11.5125 21.0846C10.1953 21.0846 8.95373 20.8331 7.78776 20.3299C6.62179 19.8268 5.60356 19.14 4.73307 18.2695C3.86259 17.399 3.17578 16.3827 2.67266 15.2204C2.16953 14.0582 1.91797 12.8164 1.91797 11.4949C1.91797 10.1735 2.16953 8.93377 2.67266 7.77578C3.17578 6.6178 3.86259 5.60356 4.73307 4.73307C5.60356 3.86259 6.61992 3.17578 7.78215 2.67266C8.94439 2.16953 10.1862 1.91797 11.5077 1.91797C12.8291 1.91797 14.0688 2.16953 15.2268 2.67266C16.3848 3.17578 17.399 3.86259 18.2695 4.73307C19.14 5.60356 19.8268 6.61805 20.3299 7.77655C20.8331 8.93504 21.0846 10.1729 21.0846 11.4901C21.0846 12.8073 20.8331 14.0489 20.3299 15.2148C19.8268 16.3808 19.14 17.399 18.2695 18.2695C17.399 19.14 16.3846 19.8268 15.2261 20.3299C14.0676 20.8331 12.8297 21.0846 11.5125 21.0846ZM11.5013 19.6471C12.3798 19.6471 13.2383 19.5194 14.0768 19.2638C14.9154 19.0082 15.7419 18.561 16.5565 17.9221C15.7419 17.3471 14.9114 16.9079 14.0648 16.6044C13.2183 16.301 12.3638 16.1492 11.5013 16.1492C10.6388 16.1492 9.78429 16.301 8.93776 16.6044C8.09123 16.9079 7.26068 17.3471 6.44609 17.9221C7.26068 18.561 8.08724 19.0082 8.92578 19.2638C9.76432 19.5194 10.6228 19.6471 11.5013 19.6471ZM11.5013 10.7826C12.0444 10.7826 12.4876 10.6109 12.831 10.2674C13.1744 9.92404 13.3461 9.48082 13.3461 8.93776C13.3461 8.3947 13.1744 7.95148 12.831 7.60807C12.4876 7.26467 12.0444 7.09297 11.5013 7.09297C10.9582 7.09297 10.515 7.26467 10.1716 7.60807C9.82821 7.95148 9.65651 8.3947 9.65651 8.93776C9.65651 9.48082 9.82821 9.92404 10.1716 10.2674C10.515 10.6109 10.9582 10.7826 11.5013 10.7826Z" fill="#F8F8F8"/>
</g>
<defs>
<clipPath id="clip0_119_315">
<rect width="23" height="23" fill="white"/>
</clipPath>
</defs>
</svg>
